<?xml version="1.0" encoding="utf-8"?>
<!-- Generator: Adobe Illustrator 16.0.0, SVG Export Plug-In . SVG Version: 6.00 Build 0)  -->
<!DOCTYPE svg PUBLIC "-//W3C//DTD SVG 1.1//EN" "http://www.w3.org/Graphics/SVG/1.1/DTD/svg11.dtd">
<svg version="1.1" id="Bold" xmlns="http://www.w3.org/2000/svg" xmlns:xlink="http://www.w3.org/1999/xlink" x="0px" y="0px"
	 width="20px" height="20px" viewBox="892.5 156 200 200" enable-background="new 892.5 156 200 200" xml:space="preserve">
<path fill="#649d14" d="M1077.465,225.49l0.218,1.428c-2.113-7.496-7.818-13.281-15.065-15.386l-0.154-0.036
	c-13.63-3.701-68.48-3.701-68.48-3.701s-54.712-0.072-68.481,3.701c-7.387,2.141-13.099,7.926-15.175,15.27l-0.036,0.152
	c-5.093,26.6-5.13,58.56,0.227,87.037l-0.227-1.443c2.112,7.496,7.817,13.281,15.066,15.387l0.152,0.036
	c13.617,3.709,68.48,3.709,68.48,3.709s54.706,0,68.481-3.709c7.394-2.142,13.105-7.927,15.182-15.269l0.037-0.154
	c2.318-12.37,3.643-26.605,3.643-41.147c0-0.53,0-1.069-0.006-1.608c0.006-0.496,0.006-1.085,0.006-1.676
	C1081.332,253.531,1080.008,239.297,1077.465,225.49L1077.465,225.49z M976.484,296.317v-53.13l45.649,26.605L976.484,296.317z"/>
</svg>
