<?xml version="1.0" encoding="utf-8"?>
<!-- Generator: Adobe Illustrator 16.0.0, SVG Export Plug-In . SVG Version: 6.00 Build 0)  -->
<!DOCTYPE svg PUBLIC "-//W3C//DTD SVG 1.1//EN" "http://www.w3.org/Graphics/SVG/1.1/DTD/svg11.dtd">
<svg version="1.1" id="Bold" xmlns="http://www.w3.org/2000/svg" xmlns:xlink="http://www.w3.org/1999/xlink" x="0px" y="0px"
	 width="20px" height="20px" viewBox="156 156 200 200" enable-background="new 156 156 200 200" xml:space="preserve">
<g>
	<path fill="#649d14" d="M338.033,341.782v-0.007h0.042v-62.842c0-30.744-6.619-54.426-42.559-54.426
		c-17.277,0-28.872,9.48-33.605,18.47h-0.499v-15.6h-34.078v114.397h35.484V285.13c0-14.915,2.826-29.337,21.297-29.337
		c18.198,0,18.47,17.021,18.47,30.293v55.696H338.033z"/>
	<path fill="#83C626" d="M169.554,227.385h35.526v114.397h-35.526V227.385z"/>
	<path fill="#83C626" d="M187.302,170.432c-11.358,0-20.576,9.218-20.576,20.576c0,11.359,9.217,20.77,20.576,20.77
		c11.359,0,20.577-9.41,20.577-20.77C207.871,179.649,198.654,170.432,187.302,170.432z"/>
</g>
</svg>
