<?xml version="1.0" encoding="utf-8"?>
<!-- Generator: Adobe Illustrator 16.0.0, SVG Export Plug-In . SVG Version: 6.00 Build 0)  -->
<!DOCTYPE svg PUBLIC "-//W3C//DTD SVG 1.1 Tiny//EN" "http://www.w3.org/Graphics/SVG/1.1/DTD/svg11-tiny.dtd">
<svg version="1.1" baseProfile="tiny" id="Layer_1" xmlns="http://www.w3.org/2000/svg" xmlns:xlink="http://www.w3.org/1999/xlink"
	 x="0px" y="0px" width="160.812px" height="40.84px" viewBox="0 0 160.812 40.84" xml:space="preserve">
<g>
	<g>
		<path fill="#FFFFFF" d="M8.615,6.438H1.861c-0.699,0-1.009-0.312-0.699-1.32C1.588,3.759,2.092,3.06,2.519,2.595
			C3.218,2.75,4.304,2.789,8.032,2.789h14.169c-0.194,2.484-1.358,3.455-2.251,3.649h-5.783v15.798c0,2.676,0.074,3.959,0.115,4.734
			c-1.203,0.194-2.872,0.311-4.735,0.311c-0.621,0-0.932-0.116-0.932-0.698V6.438z"/>
		<path fill="#FFFFFF" d="M34.579,22.818c0,1.939-1.63,3.765-2.33,4.075c-0.503,0.233-2.211,0.62-3.455,0.62
			c-5.783,0-9.003-3.027-9.003-8.889c0-4.579,3.104-9.199,8.461-9.199c5.123,0,7.026,3.689,7.026,6.833
			c0,0.62-0.04,1.008-0.117,1.28c-0.195,0.581-1.514,1.164-3.183,1.63c-0.932,0.271-5.084,0.312-6.871,0.232
			c0.272,3.145,2.757,4.192,5.047,4.192c1.901,0,3.687-0.58,4.307-0.893L34.579,22.818z M25.148,16.453
			c1.008,0.116,3.762,0.076,4.774,0c0.194,0,0.389-0.429,0.389-0.816c0-1.746-0.699-3.183-2.446-3.183
			C26.583,12.454,25.224,13.696,25.148,16.453z"/>
		<path fill="#FFFFFF" d="M37.683,11.678c0.349-1.01,1.979-2.252,3.222-2.252c1.979,0,2.677,1.709,2.715,4.076
			c1.086-2.679,2.719-4.076,4.853-4.076c0.932,0,1.825,0.467,2.213,0.933c0.038,0.931-0.389,2.756-1.166,3.805
			c-0.351,0.425-0.814,0.698-1.513,0.505c-0.624-0.234-1.011-0.272-1.592-0.272c-0.544,0-1.591,0.349-2.135,1.823
			c-0.233,0.621-0.311,0.972-0.311,1.825v7.917c0,0.622-0.079,0.971-0.931,1.088c-1.554,0.192-2.873,0.232-4.583,0.232
			c0.08-2.369,0.12-4.773,0.12-7.025v-6.6c0-0.736-0.234-1.436-0.894-1.784V11.678z"/>
		<path fill="#FFFFFF" d="M52.585,11.678c0.349-1.01,1.979-2.252,3.222-2.252c1.98,0,2.679,1.709,2.717,4.076
			c1.087-2.679,2.717-4.076,4.852-4.076c0.932,0,1.824,0.467,2.212,0.933c0.038,0.931-0.388,2.756-1.164,3.805
			c-0.349,0.425-0.815,0.698-1.514,0.505c-0.62-0.234-1.009-0.272-1.592-0.272c-0.541,0-1.59,0.349-2.134,1.823
			c-0.233,0.621-0.312,0.972-0.312,1.825v7.917c0,0.622-0.075,0.971-0.931,1.088c-1.553,0.192-2.874,0.232-4.581,0.232
			c0.078-2.369,0.116-4.773,0.116-7.025v-6.6c0-0.736-0.231-1.436-0.892-1.784V11.678z"/>
		<path fill="#FFFFFF" d="M83.053,23.788c0,2.329-1.126,3.726-3.648,3.726c-1.591,0-2.719-0.698-3.377-2.058
			c-0.971,1.05-2.603,2.058-4.349,2.058c-2.522,0-5.007-1.94-5.007-5.045c0-3.882,4.27-4.969,7.335-5.629
			c0.699-0.156,1.553-0.311,1.979-0.387v-0.467c0-1.514-1.086-2.64-2.871-2.64c-1.32,0-2.679,0.623-3.416,0.971
			c-1.901,0.544-2.444-1.126-2.405-2.368c1.823-1.281,4.657-2.523,7.296-2.523c3.299,0,6.56,2.097,6.56,6.599
			c0,1.593-0.153,4.153-0.153,6.755c0,0.389,0.465,0.893,1.396,0.893c0.195,0,0.465,0,0.62-0.039L83.053,23.788z M73.891,23.748
			c0.776,0,1.166-0.154,1.669-0.58c0.233-0.273,0.348-0.66,0.348-1.359v-2.64c-3.452,0.349-4.189,1.668-4.189,2.523
			C71.719,23.014,72.688,23.748,73.891,23.748z"/>
		<path fill="#FFFFFF" d="M97.178,1.43c0.31,1.087-0.623,3.028-1.746,2.991C95.12,4.342,94.732,4.264,94.5,4.264
			c-1.863,0-2.562,1.786-2.407,5.628c0.505,0,3.453,0,4.386-0.078c-0.117,1.475-0.776,2.522-1.28,2.872
			c-0.505,0.388-1.784,0.583-3.26,0.583c0,2.912,0.192,11.606,0.192,13.702c-1.513,0.194-4.465,0.311-5.009,0.311
			c-0.425,0-0.657-0.078-0.657-0.66c0.078-4.192,0.078-8.889,0.078-13.352c-1.517-0.154-2.33-0.661-2.33-1.629
			c0.777-0.816,1.359-1.166,2.33-1.747c0-3.805,1.123-5.939,2.755-7.492c1.71-1.591,3.532-1.901,5.046-1.901
			C95.546,0.499,96.596,0.849,97.178,1.43z"/>
		<path fill="#FFFFFF" d="M111.268,22.818c0,1.939-1.634,3.765-2.331,4.075c-0.504,0.233-2.212,0.62-3.455,0.62
			c-5.784,0-9.005-3.027-9.005-8.889c0-4.579,3.105-9.199,8.463-9.199c5.121,0,7.026,3.689,7.026,6.833
			c0,0.62-0.04,1.008-0.119,1.28c-0.192,0.581-1.513,1.164-3.183,1.63c-0.93,0.271-5.084,0.312-6.87,0.232
			c0.272,3.145,2.758,4.192,5.047,4.192c1.901,0,3.688-0.58,4.308-0.893L111.268,22.818z M101.836,16.453
			c1.008,0.116,3.762,0.076,4.772,0c0.194,0,0.389-0.429,0.389-0.816c0-1.746-0.699-3.183-2.445-3.183
			C103.27,12.454,101.912,13.696,101.836,16.453z"/>
		<path fill="#FFFFFF" d="M114.367,11.678c0.351-1.01,1.98-2.252,3.223-2.252c1.98,0,2.679,1.709,2.717,4.076
			c1.088-2.679,2.717-4.076,4.853-4.076c0.932,0,1.823,0.467,2.212,0.933c0.038,0.931-0.389,2.756-1.166,3.805
			c-0.347,0.425-0.813,0.698-1.513,0.505c-0.621-0.234-1.008-0.272-1.591-0.272c-0.543,0-1.592,0.349-2.135,1.823
			c-0.234,0.621-0.312,0.972-0.312,1.825v7.917c0,0.622-0.076,0.971-0.93,1.088c-1.554,0.192-2.872,0.232-4.58,0.232
			c0.078-2.369,0.116-4.773,0.116-7.025v-6.6c0-0.736-0.232-1.436-0.894-1.784V11.678z"/>
		<path fill="#FFFFFF" d="M141.42,23.206c0.157,1.008,0,2.367-0.698,2.989c-0.972,0.854-2.679,1.318-4.543,1.318
			c-4.19,0-5.433-2.68-5.433-5.277v-8.929c-1.516,0-2.368-0.814-2.368-1.203c0.659-1.281,4.113-4.386,4.853-4.929
			c0.737-0.583,1.551-1.126,3.299-1.281c-0.116,1.164-0.231,2.794-0.231,3.998h5.511c-0.505,3.066-1.359,3.143-2.174,3.222
			c-0.662,0.076-2.407,0.192-3.456,0.192c-0.153,2.797-0.115,6.404,0.041,7.998c0.193,1.709,1.124,2.443,2.444,2.443
			c1.164,0,2.251-0.426,2.64-0.62L141.42,23.206z"/>
		<path fill="#FFFFFF" d="M149.685,26.117c0,0.698-0.309,0.892-1.319,1.01c-0.853,0.114-2.483,0.154-4.19,0.154
			c0.038-1.592,0.116-3.843,0.116-6.133v-6.637c0-2.407-0.078-3.611-0.154-4.348c0.969-0.271,3.841-0.505,4.733-0.505
			c0.66,0,0.814,0.194,0.814,2.445V26.117z M149.764,3.992c0,1.669-1.203,2.95-2.834,2.95c-1.28,0-2.755-0.737-2.755-2.793
			c0-2.174,1.823-2.952,2.909-2.952C148.755,1.196,149.764,2.362,149.764,3.992z"/>
		<path fill="#FFFFFF" d="M154.304,5.545c0-2.291-0.078-3.223-0.156-3.998c0.776-0.351,3.766-0.815,4.735-0.815
			c0.659,0,0.815,0.194,0.815,2.523v18.671c0,1.9,0.078,3.996,0.156,5.123c-0.855,0.192-4.426,0.311-5.009,0.311
			c-0.388,0-0.542-0.118-0.542-0.506V5.545z"/>
	</g>
	<g>
		<path fill="#FFFFFF" d="M54.07,39.174l0.538-0.692c0.486,0.54,1.276,1.046,2.312,1.046c1.309,0,1.726-0.704,1.726-1.266
			c0-0.881-0.89-1.122-1.858-1.387c-1.177-0.307-2.487-0.637-2.487-2.077c0-1.211,1.079-2.037,2.52-2.037
			c1.123,0,1.991,0.375,2.608,1.024l-0.551,0.67c-0.549-0.604-1.319-0.879-2.124-0.879c-0.879,0-1.507,0.473-1.507,1.164
			c0,0.738,0.848,0.959,1.781,1.212c1.2,0.318,2.563,0.692,2.563,2.232c0,1.066-0.725,2.156-2.705,2.156
			C55.611,40.341,54.675,39.857,54.07,39.174z"/>
		<path fill="#FFFFFF" d="M60.662,36.545c0-2.166,1.463-3.795,3.641-3.795c2.168,0,3.644,1.629,3.644,3.795
			c0,2.168-1.476,3.796-3.644,3.796C62.125,40.341,60.662,38.713,60.662,36.545z M66.998,36.545c0-1.717-1.056-2.981-2.695-2.981
			c-1.649,0-2.694,1.265-2.694,2.981c0,1.705,1.044,2.982,2.694,2.982C65.942,39.527,66.998,38.25,66.998,36.545z"/>
		<path fill="#FFFFFF" d="M69.082,36.545c0-2.254,1.661-3.795,3.772-3.795c1.3,0,2.2,0.628,2.784,1.452l-0.77,0.431
			c-0.417-0.616-1.177-1.069-2.014-1.069c-1.605,0-2.826,1.234-2.826,2.981c0,1.738,1.221,2.982,2.826,2.982
			c0.837,0,1.597-0.44,2.014-1.066l0.781,0.428c-0.615,0.836-1.495,1.452-2.795,1.452C70.743,40.341,69.082,38.801,69.082,36.545z"
			/>
		<path fill="#FFFFFF" d="M76.819,40.209v-7.338h0.914v7.338H76.819z"/>
		<path fill="#FFFFFF" d="M79.45,40.209v-7.338h4.807v0.814h-3.894v2.366h3.817v0.813h-3.817v2.531h3.894v0.812H79.45z"/>
		<path fill="#FFFFFF" d="M85.714,40.209v-7.338h2.507c2.276,0,3.762,1.596,3.762,3.674c0,2.09-1.485,3.664-3.762,3.664H85.714z
			 M91.036,36.545c0-1.583-1.001-2.859-2.815-2.859h-1.595v5.711h1.595C90.003,39.396,91.036,38.119,91.036,36.545z"/>
		<path fill="#FFFFFF" d="M98.246,40.209l-0.649-1.629h-3.653l-0.648,1.629H92.25l2.948-7.338h1.132l2.959,7.338H98.246z
			 M95.771,33.816l-1.562,3.95h3.113L95.771,33.816z"/>
		<path fill="#FFFFFF" d="M100.251,40.209v-7.338h2.509c2.276,0,3.762,1.596,3.762,3.674c0,2.09-1.485,3.664-3.762,3.664H100.251z
			 M105.576,36.545c0-1.583-1.002-2.859-2.816-2.859h-1.596v5.711h1.596C104.541,39.396,105.576,38.119,105.576,36.545z"/>
		<path fill="#FFFFFF" d="M116.03,40.209l-0.648-1.629h-3.651l-0.649,1.629h-1.045l2.948-7.338h1.133l2.959,7.338H116.03z
			 M113.556,33.816l-1.563,3.95h3.116L113.556,33.816z"/>
		<path fill="#FFFFFF" d="M123.229,40.209l-4.278-5.854v5.854h-0.913v-7.338h0.935l4.224,5.731v-5.731h0.914v7.338H123.229z"/>
		<path fill="#FFFFFF" d="M125.53,36.545c0-2.166,1.465-3.795,3.644-3.795c2.166,0,3.64,1.629,3.64,3.795
			c0,2.168-1.474,3.796-3.64,3.796C126.995,40.341,125.53,38.713,125.53,36.545z M131.868,36.545c0-1.717-1.057-2.981-2.694-2.981
			c-1.651,0-2.696,1.265-2.696,2.981c0,1.705,1.045,2.982,2.696,2.982C130.812,39.527,131.868,38.25,131.868,36.545z
			 M129.186,32.255h-0.629l1.629-1.583h0.857L129.186,32.255z"/>
		<path fill="#FFFFFF" d="M139.44,40.209l-4.28-5.854v5.854h-0.912v-7.338h0.936l4.224,5.731v-5.731h0.914v7.338H139.44z"/>
		<path fill="#FFFFFF" d="M142.041,40.209v-7.338h0.912v7.338H142.041z"/>
		<path fill="#FFFFFF" d="M150.941,40.209v-6.04l-2.497,6.04h-0.375l-2.484-6.04v6.04h-0.913v-7.338h1.31l2.275,5.521l2.288-5.521
			h1.31v7.338H150.941z"/>
		<path fill="#FFFFFF" d="M158.811,40.209l-0.648-1.629h-3.652l-0.649,1.629h-1.045l2.949-7.338h1.131l2.961,7.338H158.811z
			 M156.336,33.816l-1.562,3.95h3.114L156.336,33.816z"/>
	</g>
</g>
</svg>
